<svg width="32" height="32" viewBox="0 0 32 32" fill="none" xmlns="http://www.w3.org/2000/svg">
<path d="M16 1.42773C24.0479 1.42798 30.5723 7.952 30.5723 16C30.5722 24.048 24.0479 30.572 16 30.5723C7.95189 30.5723 1.42681 24.0481 1.42676 16C1.42676 7.95185 7.95185 1.42773 16 1.42773Z" fill="#F9F9F9" stroke="white"/>
<path fill-rule="evenodd" clip-rule="evenodd" d="M11.9951 10.0264C12.33 9.41765 12.6944 9.01069 13.2351 8.79548C14.2259 8.40149 17.7746 8.40149 18.7647 8.79556C19.3051 9.01065 19.6696 9.41754 20.0048 10.0262L20.3817 10.7488C20.3903 10.7631 20.3982 10.7757 20.4053 10.7866L20.4373 10.8303C20.609 11.0174 20.8964 11.1304 21.086 11.1304C22.8794 11.1304 24.3335 12.5842 24.3335 14.3771V19.2063C24.3335 21.4931 22.4787 23.3479 20.1919 23.3479H11.8085C9.52112 23.3479 7.66687 21.4934 7.66687 19.2063V14.3771C7.66687 12.5842 9.12102 11.1304 10.9144 11.1304C11.1033 11.1304 11.3911 11.0172 11.5631 10.8303C11.5665 10.8266 11.571 10.821 11.5764 10.8136L11.6193 10.7479L11.9951 10.0264ZM18.9099 10.6292C18.7016 10.251 18.5134 10.0409 18.3024 9.95694L18.203 9.92389C17.3453 9.68148 14.3622 9.6925 13.6972 9.95694C13.4863 10.0409 13.2983 10.2509 13.0902 10.629L12.7695 11.2491L12.6906 11.3919C12.6247 11.5015 12.5588 11.5941 12.4835 11.6761C12.0614 12.1348 11.4371 12.3804 10.9144 12.3804L10.7776 12.385C9.73833 12.4553 8.91687 13.3206 8.91687 14.3771V19.2063C8.91687 20.803 10.2115 22.0979 11.8085 22.0979H20.1919C21.7884 22.0979 23.0835 20.8027 23.0835 19.2063V14.3771C23.0835 13.2747 22.1891 12.3804 21.086 12.3804L20.9409 12.3744C20.4505 12.334 19.8996 12.0931 19.5164 11.6755C19.4421 11.5946 19.3766 11.5027 19.3111 11.3941C19.3017 11.3785 19.29 11.3579 19.2766 11.3337L19.1798 11.1522L18.9099 10.6292Z" fill="#1B5E37"/>
<path d="M20.5872 13.084C21.0474 13.084 21.4205 13.4571 21.4205 13.9173C21.4205 14.3447 21.0988 14.6969 20.6844 14.745L20.5872 14.7507C20.1194 14.7507 19.7463 14.3776 19.7463 13.9173C19.7463 13.49 20.068 13.1377 20.4825 13.0896L20.5872 13.084Z" fill="#1B5E37"/>
<path fill-rule="evenodd" clip-rule="evenodd" d="M12.7258 16.9402C12.7258 15.1317 14.1915 13.666 16 13.666C17.8085 13.666 19.2742 15.1317 19.2742 16.9402C19.2742 18.7487 17.8085 20.2143 16 20.2143C14.1915 20.2143 12.7258 18.7487 12.7258 16.9402ZM18.0242 16.9402C18.0242 15.822 17.1182 14.916 16 14.916C14.8818 14.916 13.9758 15.822 13.9758 16.9402C13.9758 18.0583 14.8818 18.9643 16 18.9643C17.1182 18.9643 18.0242 18.0583 18.0242 16.9402Z" fill="#1B5E37"/>
</svg>
